# xmcd
#
# Track frame offsets: 
#        150
#        18739
#        35347
#        59801
#        70912
#        96309
#        113874
#        128773
#        145060
#        159311
#
# Disc length: 2297 seconds
#
# Revision: 0
# Processed by: cddbd v1.5.2PL0 Copyright (c) Steve Scherf et al.
# Submitted via: ExactAudioCopy v0.99pb4
#
DISCID=8d08f70a
DTITLE=John D'Amato  - Ain't No Big Deal
DYEAR=2009
DGENRE=Blues
TTITLE0=Mojo Working
TTITLE1=Got No Shame
TTITLE2=Stormy Monday
TTITLE3=What's Up?
TTITLE4=Black Orpheus
TTITLE5=Walk With Me
TTITLE6=Folsom Prison
TTITLE7=Lift Me Up
TTITLE8=Aint' No Big Deal
TTITLE9=Double  Stop Me
EXTD=
EXTT0=
EXTT1=
EXTT2=
EXTT3=
EXTT4=
EXTT5=
EXTT6=
EXTT7=
EXTT8=
EXTT9=
PLAYORDER=
